<svg width="23" height="25" viewBox="0 0 23 25" fill="none" xmlns="http://www.w3.org/2000/svg">
<path d="M16.1482 0.233643H6.85182C3.07371 0.233643 0 3.42962 0 7.35801V17.0241C0 20.9525 3.07371 24.1485 6.85182 24.1485H16.1482C19.9263 24.1485 23 20.9525 23 17.0241V7.35801C23 3.42962 19.9262 0.233643 16.1482 0.233643ZM20.6862 17.0241C20.6862 19.6301 18.6544 21.7427 16.1482 21.7427H6.85182C4.34556 21.7427 2.3138 19.6301 2.3138 17.0241V7.35801C2.3138 4.75201 4.34556 2.63948 6.85182 2.63948H16.1482C18.6544 2.63948 20.6862 4.75201 20.6862 7.35801V17.0241Z" fill="white"/>
<path d="M11.5 6.2124C8.4673 6.2124 6 8.89446 6 12.1911C6 15.4877 8.4673 18.1698 11.5 18.1698C14.5327 18.1698 17 15.4878 17 12.1911C17 8.89442 14.5327 6.2124 11.5 6.2124ZM11.5 15.8444C9.64392 15.8444 8.1393 14.2088 8.1393 12.1911C8.1393 10.1735 9.64396 8.53792 11.5 8.53792C13.3561 8.53792 14.8607 10.1735 14.8607 12.1911C14.8607 14.2087 13.356 15.8444 11.5 15.8444Z" fill="url(#paint0_linear_59_2)"/>
<path d="M17.5 7.20884C18.3284 7.20884 19 6.53965 19 5.71416C19 4.88867 18.3284 4.21948 17.5 4.21948C16.6716 4.21948 16 4.88867 16 5.71416C16 6.53965 16.6716 7.20884 17.5 7.20884Z" fill="white"/>
<defs>
<linearGradient id="paint0_linear_59_2" x1="11.5" y1="23.6821" x2="11.5" y2="0.812466" gradientUnits="userSpaceOnUse">
<stop stop-color="white"/>
</linearGradient>
</defs>
</svg>
